<mxfile host="app.diagrams.net" modified="2022-12-22T02:56:45.732Z" agent="5.0 (Macintosh; Intel Mac OS X 10_15_7) AppleWebKit/537.36 (KHTML, like Gecko) Chrome/107.0.0.0 Safari/537.36" etag="Vj1-hx_K75tmMY6JKsAf" version="20.6.2" type="github">
  <diagram id="NA4BKqEWUt-a89zvymNg" name="第 1 页">
    <mxGraphModel dx="1406" dy="1070" grid="1" gridSize="10" guides="1" tooltips="1" connect="1" arrows="1" fold="1" page="0" pageScale="1" pageWidth="827" pageHeight="1169" math="0" shadow="0">
      <root>
        <mxCell id="0" />
        <mxCell id="1" parent="0" />
        <mxCell id="Y1J3zVxvZXF6_qakw0I8-3" value="" style="edgeStyle=orthogonalEdgeStyle;rounded=0;orthogonalLoop=1;jettySize=auto;html=1;" parent="1" source="Y1J3zVxvZXF6_qakw0I8-1" target="Y1J3zVxvZXF6_qakw0I8-2" edge="1">
          <mxGeometry relative="1" as="geometry" />
        </mxCell>
        <mxCell id="Y1J3zVxvZXF6_qakw0I8-1" value="商家审核、店铺审核" style="rounded=1;whiteSpace=wrap;html=1;" parent="1" vertex="1">
          <mxGeometry x="70" y="50" width="120" height="60" as="geometry" />
        </mxCell>
        <mxCell id="Y1J3zVxvZXF6_qakw0I8-10" style="edgeStyle=orthogonalEdgeStyle;rounded=0;orthogonalLoop=1;jettySize=auto;html=1;" parent="1" source="Y1J3zVxvZXF6_qakw0I8-2" edge="1">
          <mxGeometry relative="1" as="geometry">
            <mxPoint x="340" y="170" as="targetPoint" />
          </mxGeometry>
        </mxCell>
        <mxCell id="Y1J3zVxvZXF6_qakw0I8-2" value="应缴纳基础保证金、&lt;br&gt;" style="whiteSpace=wrap;html=1;rounded=1;" parent="1" vertex="1">
          <mxGeometry x="280" y="50" width="120" height="60" as="geometry" />
        </mxCell>
        <mxCell id="Y1J3zVxvZXF6_qakw0I8-12" value="" style="edgeStyle=orthogonalEdgeStyle;rounded=0;orthogonalLoop=1;jettySize=auto;html=1;" parent="1" source="Y1J3zVxvZXF6_qakw0I8-9" target="Y1J3zVxvZXF6_qakw0I8-11" edge="1">
          <mxGeometry relative="1" as="geometry" />
        </mxCell>
        <mxCell id="Y1J3zVxvZXF6_qakw0I8-13" value="是" style="edgeLabel;html=1;align=center;verticalAlign=middle;resizable=0;points=[];" parent="Y1J3zVxvZXF6_qakw0I8-12" vertex="1" connectable="0">
          <mxGeometry x="-0.2753" y="1" relative="1" as="geometry">
            <mxPoint as="offset" />
          </mxGeometry>
        </mxCell>
        <mxCell id="Y1J3zVxvZXF6_qakw0I8-14" style="edgeStyle=orthogonalEdgeStyle;rounded=0;orthogonalLoop=1;jettySize=auto;html=1;entryX=0.5;entryY=0;entryDx=0;entryDy=0;" parent="1" source="Y1J3zVxvZXF6_qakw0I8-9" target="Y1J3zVxvZXF6_qakw0I8-15" edge="1">
          <mxGeometry relative="1" as="geometry">
            <mxPoint x="480" y="210" as="targetPoint" />
          </mxGeometry>
        </mxCell>
        <mxCell id="Y1J3zVxvZXF6_qakw0I8-16" value="否" style="edgeLabel;html=1;align=center;verticalAlign=middle;resizable=0;points=[];" parent="Y1J3zVxvZXF6_qakw0I8-14" vertex="1" connectable="0">
          <mxGeometry x="-0.468" y="1" relative="1" as="geometry">
            <mxPoint as="offset" />
          </mxGeometry>
        </mxCell>
        <mxCell id="Y1J3zVxvZXF6_qakw0I8-9" value="线下收款是否已收" style="rhombus;whiteSpace=wrap;html=1;" parent="1" vertex="1">
          <mxGeometry x="275" y="170" width="130" height="80" as="geometry" />
        </mxCell>
        <mxCell id="Y1J3zVxvZXF6_qakw0I8-19" value="保存保证金明细" style="edgeStyle=orthogonalEdgeStyle;rounded=0;orthogonalLoop=1;jettySize=auto;html=1;entryX=0.5;entryY=0;entryDx=0;entryDy=0;" parent="1" source="Y1J3zVxvZXF6_qakw0I8-11" target="Y1J3zVxvZXF6_qakw0I8-18" edge="1">
          <mxGeometry relative="1" as="geometry" />
        </mxCell>
        <mxCell id="Y1J3zVxvZXF6_qakw0I8-11" value="审核通过" style="whiteSpace=wrap;html=1;" parent="1" vertex="1">
          <mxGeometry x="100" y="270" width="120" height="60" as="geometry" />
        </mxCell>
        <mxCell id="Y1J3zVxvZXF6_qakw0I8-21" value="" style="edgeStyle=orthogonalEdgeStyle;rounded=0;orthogonalLoop=1;jettySize=auto;html=1;" parent="1" source="Y1J3zVxvZXF6_qakw0I8-15" target="Y1J3zVxvZXF6_qakw0I8-20" edge="1">
          <mxGeometry relative="1" as="geometry" />
        </mxCell>
        <mxCell id="Y1J3zVxvZXF6_qakw0I8-22" value="保存保证金明细" style="edgeLabel;html=1;align=center;verticalAlign=middle;resizable=0;points=[];" parent="Y1J3zVxvZXF6_qakw0I8-21" vertex="1" connectable="0">
          <mxGeometry x="-0.328" relative="1" as="geometry">
            <mxPoint as="offset" />
          </mxGeometry>
        </mxCell>
        <mxCell id="Y1J3zVxvZXF6_qakw0I8-15" value="审核通过" style="rounded=0;whiteSpace=wrap;html=1;" parent="1" vertex="1">
          <mxGeometry x="430" y="270" width="120" height="60" as="geometry" />
        </mxCell>
        <mxCell id="Y1J3zVxvZXF6_qakw0I8-18" value="状态：已缴纳" style="whiteSpace=wrap;html=1;" parent="1" vertex="1">
          <mxGeometry x="100" y="400" width="120" height="60" as="geometry" />
        </mxCell>
        <mxCell id="Y1J3zVxvZXF6_qakw0I8-20" value="状态：未缴纳" style="whiteSpace=wrap;html=1;rounded=0;" parent="1" vertex="1">
          <mxGeometry x="430" y="400" width="120" height="60" as="geometry" />
        </mxCell>
        <mxCell id="Y1J3zVxvZXF6_qakw0I8-24" style="edgeStyle=orthogonalEdgeStyle;rounded=0;orthogonalLoop=1;jettySize=auto;html=1;" parent="1" source="Y1J3zVxvZXF6_qakw0I8-23" target="Y1J3zVxvZXF6_qakw0I8-1" edge="1">
          <mxGeometry relative="1" as="geometry" />
        </mxCell>
        <mxCell id="Y1J3zVxvZXF6_qakw0I8-33" style="edgeStyle=orthogonalEdgeStyle;rounded=0;orthogonalLoop=1;jettySize=auto;html=1;" parent="1" source="Y1J3zVxvZXF6_qakw0I8-23" edge="1">
          <mxGeometry relative="1" as="geometry">
            <mxPoint x="130" y="-180" as="targetPoint" />
          </mxGeometry>
        </mxCell>
        <mxCell id="Y1J3zVxvZXF6_qakw0I8-23" value="work端" style="rounded=1;whiteSpace=wrap;html=1;" parent="1" vertex="1">
          <mxGeometry x="70" y="-80" width="120" height="60" as="geometry" />
        </mxCell>
        <mxCell id="Y1J3zVxvZXF6_qakw0I8-30" style="edgeStyle=orthogonalEdgeStyle;rounded=0;orthogonalLoop=1;jettySize=auto;html=1;entryX=0.508;entryY=-0.101;entryDx=0;entryDy=0;entryPerimeter=0;" parent="1" source="Y1J3zVxvZXF6_qakw0I8-25" target="Y1J3zVxvZXF6_qakw0I8-26" edge="1">
          <mxGeometry relative="1" as="geometry" />
        </mxCell>
        <mxCell id="Y1J3zVxvZXF6_qakw0I8-25" value="商家小程序" style="rounded=1;whiteSpace=wrap;html=1;" parent="1" vertex="1">
          <mxGeometry x="470" y="-100" width="120" height="60" as="geometry" />
        </mxCell>
        <mxCell id="Y1J3zVxvZXF6_qakw0I8-29" style="edgeStyle=orthogonalEdgeStyle;rounded=0;orthogonalLoop=1;jettySize=auto;html=1;" parent="1" source="Y1J3zVxvZXF6_qakw0I8-26" edge="1">
          <mxGeometry relative="1" as="geometry">
            <mxPoint x="410" y="80" as="targetPoint" />
          </mxGeometry>
        </mxCell>
        <mxCell id="Y1J3zVxvZXF6_qakw0I8-26" value="商家入驻" style="rounded=1;whiteSpace=wrap;html=1;" parent="1" vertex="1">
          <mxGeometry x="470" y="50" width="120" height="60" as="geometry" />
        </mxCell>
        <mxCell id="Y1J3zVxvZXF6_qakw0I8-31" value="&lt;font color=&quot;#ff3333&quot;&gt;提供保证金保存接口（DubbleSerVice）&lt;/font&gt;" style="text;html=1;align=center;verticalAlign=middle;resizable=0;points=[];autosize=1;strokeColor=none;fillColor=none;" parent="1" vertex="1">
          <mxGeometry x="210" y="-85" width="240" height="30" as="geometry" />
        </mxCell>
        <mxCell id="Y1J3zVxvZXF6_qakw0I8-34" style="edgeStyle=orthogonalEdgeStyle;rounded=0;orthogonalLoop=1;jettySize=auto;html=1;" parent="1" source="Y1J3zVxvZXF6_qakw0I8-32" edge="1">
          <mxGeometry relative="1" as="geometry">
            <mxPoint x="260" y="-220" as="targetPoint" />
          </mxGeometry>
        </mxCell>
        <mxCell id="Y1J3zVxvZXF6_qakw0I8-32" value="商家登录-未交保证金" style="rounded=1;whiteSpace=wrap;html=1;" parent="1" vertex="1">
          <mxGeometry x="71" y="-250" width="120" height="60" as="geometry" />
        </mxCell>
        <mxCell id="Y1J3zVxvZXF6_qakw0I8-37" style="edgeStyle=orthogonalEdgeStyle;rounded=0;orthogonalLoop=1;jettySize=auto;html=1;" parent="1" source="Y1J3zVxvZXF6_qakw0I8-35" edge="1">
          <mxGeometry relative="1" as="geometry">
            <mxPoint x="430" y="-220" as="targetPoint" />
          </mxGeometry>
        </mxCell>
        <mxCell id="Y1J3zVxvZXF6_qakw0I8-35" value="支付拦截" style="rounded=1;whiteSpace=wrap;html=1;" parent="1" vertex="1">
          <mxGeometry x="260" y="-250" width="120" height="60" as="geometry" />
        </mxCell>
        <mxCell id="Y1J3zVxvZXF6_qakw0I8-36" value="支付基础保证金" style="rounded=1;whiteSpace=wrap;html=1;" parent="1" vertex="1">
          <mxGeometry x="440" y="-250" width="120" height="60" as="geometry" />
        </mxCell>
        <mxCell id="Y1J3zVxvZXF6_qakw0I8-40" value="" style="edgeStyle=orthogonalEdgeStyle;rounded=0;orthogonalLoop=1;jettySize=auto;html=1;fontColor=#000000;" parent="1" source="Y1J3zVxvZXF6_qakw0I8-38" target="Y1J3zVxvZXF6_qakw0I8-39" edge="1">
          <mxGeometry relative="1" as="geometry" />
        </mxCell>
        <mxCell id="Y1J3zVxvZXF6_qakw0I8-44" value="" style="edgeStyle=orthogonalEdgeStyle;rounded=0;orthogonalLoop=1;jettySize=auto;html=1;fontColor=#030101;" parent="1" source="Y1J3zVxvZXF6_qakw0I8-38" target="Y1J3zVxvZXF6_qakw0I8-43" edge="1">
          <mxGeometry relative="1" as="geometry" />
        </mxCell>
        <mxCell id="Y1J3zVxvZXF6_qakw0I8-38" value="&lt;font color=&quot;#000000&quot;&gt;店铺信息、商家列表详情&lt;/font&gt;" style="rounded=1;whiteSpace=wrap;html=1;fontColor=#FF3333;" parent="1" vertex="1">
          <mxGeometry y="590" width="120" height="60" as="geometry" />
        </mxCell>
        <mxCell id="Y1J3zVxvZXF6_qakw0I8-42" value="" style="edgeStyle=orthogonalEdgeStyle;rounded=0;orthogonalLoop=1;jettySize=auto;html=1;fontColor=#000000;" parent="1" source="Y1J3zVxvZXF6_qakw0I8-39" target="Y1J3zVxvZXF6_qakw0I8-41" edge="1">
          <mxGeometry relative="1" as="geometry" />
        </mxCell>
        <mxCell id="Y1J3zVxvZXF6_qakw0I8-39" value="&lt;font color=&quot;#000000&quot;&gt;查询店铺保证金是否缴纳&lt;/font&gt;" style="whiteSpace=wrap;html=1;fontColor=#FF3333;rounded=1;" parent="1" vertex="1">
          <mxGeometry x="230" y="590" width="120" height="60" as="geometry" />
        </mxCell>
        <mxCell id="Y1J3zVxvZXF6_qakw0I8-41" value="&lt;font color=&quot;#030101&quot;&gt;提供是否已缴List（&lt;/font&gt;&lt;span style=&quot;&quot;&gt;DubbleSerVice&lt;/span&gt;&lt;font color=&quot;#030101&quot;&gt;）&lt;/font&gt;" style="whiteSpace=wrap;html=1;fontColor=#FF3333;rounded=1;" parent="1" vertex="1">
          <mxGeometry x="430" y="590" width="120" height="60" as="geometry" />
        </mxCell>
        <mxCell id="Y1J3zVxvZXF6_qakw0I8-46" value="" style="edgeStyle=orthogonalEdgeStyle;rounded=0;orthogonalLoop=1;jettySize=auto;html=1;fontColor=#030101;" parent="1" source="Y1J3zVxvZXF6_qakw0I8-43" target="Y1J3zVxvZXF6_qakw0I8-45" edge="1">
          <mxGeometry relative="1" as="geometry" />
        </mxCell>
        <mxCell id="Y1J3zVxvZXF6_qakw0I8-43" value="查看明细" style="whiteSpace=wrap;html=1;fontColor=#FF3333;rounded=1;" parent="1" vertex="1">
          <mxGeometry y="730" width="120" height="60" as="geometry" />
        </mxCell>
        <mxCell id="nQCQSema7qJGIRkRdBQZ-2" value="" style="edgeStyle=orthogonalEdgeStyle;rounded=0;orthogonalLoop=1;jettySize=auto;html=1;" edge="1" parent="1" source="Y1J3zVxvZXF6_qakw0I8-45" target="nQCQSema7qJGIRkRdBQZ-1">
          <mxGeometry relative="1" as="geometry" />
        </mxCell>
        <mxCell id="Y1J3zVxvZXF6_qakw0I8-45" value="明细列表（VO）" style="whiteSpace=wrap;html=1;fontColor=#FF3333;rounded=1;" parent="1" vertex="1">
          <mxGeometry x="230" y="730" width="120" height="60" as="geometry" />
        </mxCell>
        <mxCell id="nQCQSema7qJGIRkRdBQZ-1" value="增加收费保证接口" style="whiteSpace=wrap;html=1;fontColor=#FF3333;rounded=1;" vertex="1" parent="1">
          <mxGeometry x="230" y="870" width="120" height="60" as="geometry" />
        </mxCell>
      </root>
    </mxGraphModel>
  </diagram>
</mxfile>
